<svg fill="none" height="32" viewBox="0 0 32 32" width="32" xmlns="http://www.w3.org/2000/svg" xmlns:xlink="http://www.w3.org/1999/xlink"><linearGradient id="a" gradientUnits="userSpaceOnUse" x1="4.494" x2="13.8432" y1="8.72866" y2="24.9071"><stop offset="0" stop-color="#2368c4"/><stop offset=".5" stop-color="#1a5dbe"/><stop offset="1" stop-color="#1146ac"/></linearGradient><path d="m28.806 3.81079h-19.10104c-.15653-.00013-.31156.0306-.45623.09043s-.27615.14759-.38693.25827c-.11078.11069-.19869.24212-.25872.38681-.06002.14469-.09099.29979-.09112.45645v5.31325l11.06904 3.2526 10.419-3.2526v-5.31325c-.0002-.15675-.0312-.31193-.0913-.45668-.06-.14475-.148-.27623-.2589-.38693s-.2425-.19844-.3873-.25821-.2999-.0904-.4565-.09014z" fill="#41a5ee"/><path d="m30 10.316h-21.48804v6.5053l11.06904 1.9515 10.419-1.9515z" fill="#2b7cd3"/><path d="m8.51196 16.8212v6.5052l10.41804 1.301 11.07-1.301v-6.5052z" fill="#185abd"/><path d="m9.70496 29.8316h19.10004c.1567.0004.3119-.0301.4568-.0898s.2766-.1475.3876-.2582.1991-.2422.2593-.387c.0601-.1448.0911-.3001.0913-.4569v-5.3133h-21.48804v5.3133c.00013.1566.0311.3117.09112.4564.06003.1447.14794.2761.25872.3868s.24226.1985.38693.2583.2997.0906.45623.0904z" fill="#103f91"/><g fill="#000"><path d="m16.434 9.01489h-7.92204v16.26301h7.92204c.3156-.0015.618-.1275.8415-.3506.2234-.2232.3501-.5254.3525-.8413v-13.8792c-.0024-.31587-.1291-.61813-.3525-.84124-.2235-.22311-.5259-.3491-.8415-.35067z" opacity=".1"/><path d="m15.783 9.66541h-7.27104v16.26299h7.27104c.3156-.0015.618-.1275.8415-.3506.2234-.2231.3501-.5254.3525-.8413v-13.8791c-.0024-.316-.1291-.6182-.3525-.8413-.2235-.22313-.5259-.34912-.8415-.35069z" opacity=".2"/><path d="m15.783 9.66541h-7.27104v14.96199h7.27104c.3156-.0016.618-.1276.8415-.3507.2234-.2231.3501-.5253.3525-.8413v-12.578c-.0024-.316-.1291-.6182-.3525-.8413-.2235-.22313-.5259-.34912-.8415-.35069z" opacity=".2"/><path d="m15.132 9.66541h-6.62004v14.96199h6.62004c.3156-.0016.618-.1276.8415-.3507.2234-.2231.3501-.5253.3525-.8413v-12.578c-.0024-.316-.1291-.6182-.3525-.8413-.2235-.22313-.5259-.34912-.8415-.35069z" opacity=".2"/></g><path d="m3.194 9.66541h11.938c.3162-.00027.6196.12513.8435.34859.2239.2236.35.5269.3505.8434v11.9275c-.0005.3165-.1266.6198-.3505.8433s-.5273.3489-.8435.3487h-11.938c-.15662.0002-.31176-.0304-.45654-.0902-.14479-.0597-.27638-.1475-.38727-.2582s-.19889-.2422-.25898-.3869c-.06008-.1448-.09108-.2999-.09121-.4567v-11.9275c.00013-.1568.03113-.312.09121-.4567.06009-.1448.14809-.2763.25898-.3869.11089-.11074.24248-.19848.38727-.25826.14478-.05977.29992-.0904.45654-.09013z" fill="url(#a)"/><path d="m6.89994 18.8108c.023.1842.039.3443.046.4814h.028c.01-.1301.032-.2872.065-.4704.033-.1831.062-.3382.089-.4653l1.255-5.4114h1.62396l1.3 5.3303c.0758.3297.1299.664.162 1.0008h.022c.0239-.3279.069-.6538.135-.9758l1.039-5.3623h1.477l-1.824 7.7542h-1.727l-1.23696-5.1301c-.036-.1481-.07666-.3409-.122-.5785-.04533-.2375-.07333-.4109-.084-.5204h-.021c-.014.1261-.042.3133-.084.5615-.042.2492-.075.4323-.1.5524l-1.163 5.1181h-1.756l-1.834-7.7502h1.5l1.131 5.4224c.03376.1463.06012.2943.079.4433z" fill="#fff"/></svg>