<svg fill="none" height="33" viewBox="0 0 32 33" width="32" xmlns="http://www.w3.org/2000/svg"><path d="m21.42.769897h-16.584c-.46171 0-.836.374583-.836 1.101453v30.35235c0 .1973.37429.5719.836.5719h22.8994c.4617 0 .836-.3746.836-.5719v-24.03186c0-.39803-.0531-.52613-.1468-.62049l-6.6492-6.654478c-.0943-.093789-.2223-.146975-.3554-.146975z" fill="#e9e9e0"/><path d="m21.7142.856201v6.776289h6.7709z" fill="#d9d7ca"/><path d="m11.4365 19.8274c-.1989 0-.3897-.0646-.5526-.1864-.5949-.4467-.6749-.9436-.6371-1.2822.104-.931 1.2542-1.9055 3.42-2.8983.8594-1.8849 1.6771-4.2074 2.1645-6.14779-.5703-1.24214-1.1245-2.85372-.7205-3.79904.1417-.33113.3182-.58504.648-.69485.1302-.04346.4594-.09836.5805-.09836.288 0 .5412.37115.7206.59991.1686.21503.5509.67082-.2131 3.88997.7702 1.59216 1.8617 3.21396 2.9074 4.32466.7491-.1356 1.3937-.2048 1.9188-.2048.8949 0 1.4372.2088 1.6583.6388.1829.3557.108.7715-.2228 1.2353-.3183.4455-.7572.6811-1.2686.6811-.6949 0-1.504-.4392-2.4063-1.3068-1.6211.3392-3.5143.9442-5.0446 1.6139-.4777 1.0145-.9354 1.8318-1.3617 2.4311-.5857.8207-1.0908 1.2038-1.5908 1.2038zm1.5211-2.9315c-1.2211.6869-1.7188 1.2513-1.7548 1.5693-.0058.0526-.0212.191.2462.3957.0852-.0268.5823-.2539 1.5086-1.965zm7.7926-2.5403c.4657.3586.5794.5399.884.5399.1337 0 .5148-.0057.6914-.2522.0852-.1196.1183-.1962.1314-.2374-.0702-.0371-.1634-.1126-.6714-.1126-.2886.0005-.6514.0131-1.0354.0623zm-4.2686-3.7642c-.4086 1.4149-.948 2.9424-1.528 4.3258 1.1943-.4638 2.4926-.8687 3.712-1.1552-.7714-.8967-1.5423-2.0165-2.184-3.1706zm-.3468-4.83926c-.056.01888-.76 1.00481.0548 1.83919.5423-1.20954-.0303-1.84719-.0548-1.83919z" fill="#cc4b4c"/><path d="m27.7354 32.7954h-22.8994c-.46171 0-.836-.3745-.836-.8366v-8.8854h24.5714v8.8854c0 .4621-.3743.8366-.836.8366z" fill="#cc4b4c"/><g fill="#fff"><path d="m10.2199 31.0798h-.93767v-5.7623h1.65597c.2446 0 .4869.0389.7263.1172.2394.0784.4543.1956.6446.3518.1903.1561.344.3454.4611.5667.1172.2213.176.4701.176.7469 0 .2922-.0497.5564-.1485.7938-.0989.2373-.2372.4369-.4143.5981-.1772.1613-.3909.2866-.6406.3752s-.5263.1327-.828.1327h-.6954v2.0799zm0-5.0509v2.283h.8595c.1143 0 .2274-.0194.34-.0589.112-.0389.2148-.1029.3085-.1916.0938-.0886.1692-.2122.2263-.3711.0572-.159.0857-.3557.0857-.5902 0-.0938-.0131-.2025-.0388-.3243-.0263-.1224-.0794-.2396-.16-.3517-.0812-.1121-.1943-.2059-.34-.2814s-.3389-.1132-.5783-.1132h-.7029z"/><path d="m18.6964 28.0385c0 .4741-.0508.8796-.1525 1.2159-.1018.3362-.2303.6176-.3869.8447-.1566.227-.332.4054-.5274.5358-.1955.1304-.384.2276-.5663.2934-.1823.0652-.3492.1069-.5.1252-.1509.0172-.2629.0263-.336.0263h-2.1794v-5.7623h1.7342c.4846 0 .9103.0772 1.2772.2305.3668.1532.672.3585.9143.6136s.4228.5462.5428.8716c.12.3259.18.6611.18 1.0053zm-2.7811 2.3534c.6354 0 1.0937-.2031 1.3748-.6097.2812-.4066.4218-.9956.4218-1.7671 0-.2396-.0286-.477-.0858-.7114-.0577-.2345-.168-.4467-.332-.6371-.164-.1905-.3868-.3443-.668-.4615-.2811-.1173-.6457-.1762-1.0937-.1762h-.5468v4.363z"/><path d="m21.0092 26.0289v1.8141h2.4063v.641h-2.4063v2.5958h-.9532v-5.7623h3.6012v.7114z"/></g></svg>