<svg fill="none" height="32" viewBox="0 0 32 32" width="32" xmlns="http://www.w3.org/2000/svg" xmlns:xlink="http://www.w3.org/1999/xlink"><linearGradient id="a" gradientUnits="userSpaceOnUse" x1="4.494" x2="13.832" y1="7.91398" y2="24.086"><stop offset="0" stop-color="#ca4c28"/><stop offset=".5" stop-color="#c5401e"/><stop offset="1" stop-color="#b62f14"/></linearGradient><path d="m18.93 17.3-1.953-14.3h-.146c-3.4095.00579-6.6781 1.36115-9.09124 3.7698-2.41315 2.40865-3.7746 5.6747-3.78676 9.0842v.146z" fill="#ed6c47"/><path d="m17.1231 3h-.146v13l6.511 2.6 6.512-2.6v-.146c-.0122-3.4093-1.3735-6.67522-3.7864-9.08385-2.413-2.40862-5.6813-3.76409-9.0906-3.77015z" fill="#ff8f6b"/><path d="m30 16v.143c-.0127 3.41-1.3745 6.6763-3.7879 9.0854-2.4133 2.4091-5.6821 3.765-9.0921 3.7716h-.287c-3.4098-.0071-6.6783-1.3632-9.09156-3.7722-2.41327-2.409-3.77524-5.675-3.78844-9.0848v-.143z" fill="#d35230"/><g fill="#000"><path d="m17.628 9.38895v13.87105c-.0018.236-.0731.4662-.2051.6618-.132.1957-.3187.3481-.5369.4382-.1424.06-.2954.0909-.45.091h-9.40899c-.182-.208-.358-.429-.521-.65-1.65871-2.2081-2.55473-4.8954-2.553-7.657v-.286c-.00314-2.4911.72609-4.9281 2.097-7.00805.143-.221.293-.442.456-.65h9.92999c.315.00209.6165.12793.8395.35038.223.22244.3496.52365.3525.83862z" opacity=".1"/><path d="m16.977 10.04v13.871c0 .1539-.031.3062-.091.448-.0902.2179-.2427.4045-.4383.5363-.1957.1317-.4258.203-.6617.2047h-8.16599c-.206-.2094-.40366-.426-.593-.65-.182-.208-.358-.429-.521-.65-1.65871-2.208-2.55473-4.8954-2.553-7.657v-.286c-.00295-2.4907.72628-4.9274 2.097-7.00702h9.73499c.3152.00209.6168.12807.8399.35073.223.22266.3495.52412.3521.83929z" opacity=".2"/><path d="m16.977 10.04v12.571c-.0029.3149-.1295.6162-.3525.8386s-.5245.3483-.8395.3504h-9.27899c-1.65871-2.208-2.55473-4.8954-2.553-7.657v-.286c-.00295-2.4907.72628-4.9274 2.097-7.00702h9.73499c.3152.00209.6168.12807.8399.35073.223.22266.3495.52412.3521.83929z" opacity=".2"/><path d="m16.326 10.04v12.571c-.0029.3149-.1295.6162-.3525.8386s-.5245.3483-.8395.3504h-8.62799c-1.65871-2.208-2.55473-4.8954-2.553-7.657v-.286c-.00295-2.4907.72628-4.9274 2.097-7.00702h9.08399c.3152.00209.6168.12807.8399.35073.223.22266.3495.52412.3521.83929z" opacity=".2"/></g><path d="m3.194 8.84998h11.938c.3162-.00027.6196.12503.8435.34836.2239.22332.35.52641.3505.84266v11.918c-.0005.3162-.1266.6193-.3505.8426s-.5273.3486-.8435.3484h-11.938c-.15662.0002-.31176-.0304-.45654-.0901-.14479-.0597-.27638-.1474-.38727-.258s-.19889-.242-.25898-.3866c-.06008-.1446-.09108-.2997-.09121-.4563v-11.918c.00013-.15664.03113-.3117.09121-.45634.06009-.14463.14809-.27601.25898-.38662.11089-.1106.24248-.19827.38727-.258.14478-.05972.29992-.09033.45654-.09006z" fill="url(#a)"/><path d="m9.29299 12.028c.77711-.0522 1.54761.1732 2.17401.636.2576.2293.4595.5143.5905.8333s.1876.6636.1655 1.0077c.0087.4848-.1206.9621-.373 1.376-.2553.4074-.6231.7322-1.059.935-.498.231-1.04217.3452-1.59101.334h-1.513v2.8h-1.546v-7.922zm-1.607 3.912h1.331c.42201.0305.84059-.0944 1.17701-.351.1376-.1312.2447-.291.3138-.4681.0691-.177.0985-.3672.0862-.5569 0-.8726-.5083-1.3093-1.52501-1.31h-1.383z" fill="#fff"/></svg>